<?xml version="1.0" encoding="utf-8"?><svg viewBox="0 0 32 33" xmlns="http://www.w3.org/2000/svg" xmlns:xlink="http://www.w3.org/1999/xlink"><style>:root>svg{display:none}:root>svg:target{display:block}</style><svg fill="none" viewBox="0 0 32 32" id="circus" xmlns="http://www.w3.org/2000/svg"><path d="M30.282 29.791V20.85a4.692 4.692 0 001.697-3.612v-2.118L16.938 6.75V5.541h5.414V.334h-7.29v6.415L0 15.119v2.118c0 1.46.67 2.768 1.719 3.63v8.924H0v1.875H32v-1.875h-1.718zM16.938 2.21h3.54v1.458h-3.54V2.209zm12.32 13.541h-5.095L19.5 10.32l9.757 5.43zm-12.331-5.549l4.765 5.55h-4.765V10.2zm5.624 7.424a2.83 2.83 0 01-2.799 2.437 2.83 2.83 0 01-2.799-2.437h5.598zM10.305 15.75l4.747-5.543v5.543h-4.747zm4.72 1.875a2.83 2.83 0 01-2.799 2.437 2.83 2.83 0 01-2.799-2.437h5.598zm-2.547-7.295l-4.642 5.42H2.723l9.755-5.42zM1.902 17.625h5.597A2.83 2.83 0 014.7 20.062a2.83 2.83 0 01-2.798-2.437zm5.697 12.166H3.594v-7.986a4.697 4.697 0 004.87-1.754 4.696 4.696 0 006.39 1.081 11.083 11.083 0 01-1.183 3.24 11.09 11.09 0 01-3.826 4.021L7.6 29.791zm3.537 0A12.903 12.903 0 0016 23.832a12.893 12.893 0 004.865 5.96h-9.729zm17.271 0h-4.005l-2.247-1.398a11.091 11.091 0 01-3.825-4.02 11.079 11.079 0 01-1.18-3.224 4.697 4.697 0 006.365-1.098 4.696 4.696 0 004.892 1.748v7.992zm-1.129-9.729a2.83 2.83 0 01-2.799-2.437h5.598a2.83 2.83 0 01-2.799 2.437z" fill="#10375C"/></svg><svg fill="none" viewBox="0 0 32 33" id="flag" xmlns="http://www.w3.org/2000/svg"><path d="M8 28.871V16.866m0 12.005h2m-2 0H6m2-12.005V4.861h18l-6 6.003 6 6.002H8z" stroke="#262F56" stroke-width="2.5" stroke-linecap="round" stroke-linejoin="round"/></svg><svg fill="none" viewBox="0 0 32 32" id="meeting" xmlns="http://www.w3.org/2000/svg"><path d="M28.25 7.5A3.754 3.754 0 0032 3.75 3.754 3.754 0 0028.25 0a3.754 3.754 0 00-3.75 3.75 3.754 3.754 0 003.75 3.75zm0-5c.69 0 1.25.56 1.25 1.25S28.94 5 28.25 5 27 4.44 27 3.75s.56-1.25 1.25-1.25zm-24.5 5A3.754 3.754 0 007.5 3.75 3.754 3.754 0 003.75 0 3.754 3.754 0 000 3.75 3.754 3.754 0 003.75 7.5zm0-5C4.44 2.5 5 3.06 5 3.75S4.44 5 3.75 5 2.5 4.44 2.5 3.75 3.06 2.5 3.75 2.5zm24.52 6.188h-.019c-2.587 0-3.568 1.883-4.186 3.727l-.966 2.898h-1.474v-2.876a3.754 3.754 0 00-3.75-3.75h-3.75a3.754 3.754 0 00-3.75 3.75v2.876H8.901c-.3-.9-.755-2.27-.966-2.898-.618-1.844-1.599-3.727-4.186-3.727H3.73A3.754 3.754 0 000 12.438v6.812a3.756 3.756 0 002.5 3.535v.027c.032 0 .064.003.095.005.14.046.282.083.428.112.428.198.727.631.727 1.134V32h2.5v-7.938c0-.368-.054-.725-.154-1.062h1.466c.69 0 1.25.56 1.25 1.25V32h2.5v-7.75a3.754 3.754 0 00-3.75-3.75H3.75c-.032 0-.064-.002-.095-.005a3.734 3.734 0 00-.428-.111A1.25 1.25 0 012.5 19.25v-6.813a1.25 1.25 0 011.239-1.25c.565-.002 1.147-.003 1.826 2.023.324.968 1.24 3.72 1.249 3.747l.284.855h17.804l.284-.855c.01-.028.925-2.779 1.25-3.747.678-2.026 1.26-2.024 1.825-2.023a1.25 1.25 0 011.239 1.25v6.813c0 .502-.299.936-.727 1.134a3.732 3.732 0 00-.427.111 1.211 1.211 0 01-.096.005H24.5a3.754 3.754 0 00-3.75 3.75V32h2.5v-7.75c0-.69.56-1.25 1.25-1.25h1.404c-.1.337-.154.694-.154 1.063V32h2.5v-7.938c0-.502.299-.935.727-1.133.146-.03.288-.066.427-.112.032-.002.064-.005.096-.005v-.027A3.756 3.756 0 0032 19.25v-6.813a3.754 3.754 0 00-3.73-3.75zm-15.395 3.75c0-.69.56-1.25 1.25-1.25h3.75c.69 0 1.25.56 1.25 1.25v2.874h-6.25v-2.874zM16 7.5a3.754 3.754 0 003.75-3.75A3.754 3.754 0 0016 0a3.754 3.754 0 00-3.75 3.75A3.754 3.754 0 0016 7.5zm0-5c.69 0 1.25.56 1.25 1.25S16.69 5 16 5s-1.25-.56-1.25-1.25S15.31 2.5 16 2.5z" fill="#10375C"/></svg><svg fill="none" viewBox="0 0 32 32" id="user" xmlns="http://www.w3.org/2000/svg"><ellipse cx="16" cy="8.667" rx="5.333" ry="6" stroke="#10375C" stroke-width="2.5"/><path d="M26.667 25.333c0 4.667-5.334 3.334-10.667 3.334S5.333 30 5.333 25.333c0-2.666 4.776-6 10.667-6s10.667 3.334 10.667 6z" stroke="#10375C" stroke-width="2.5"/></svg><svg fill="none" viewBox="0 0 32 32" id="users" xmlns="http://www.w3.org/2000/svg"><path d="M23.333 19.851c3.467.932 6 3.026 6 5.482 0 1.474-2.533 2.948-6 3.621M12 19.333c-5.333 0-9.333 2.667-9.333 6 0 2 4 4 9.333 4s9.333-2 9.333-4c0-3.333-4-6-9.333-6zM20 15.333a6 6 0 000-12" stroke="#10375C" stroke-width="2.5" stroke-linecap="round" stroke-linejoin="round"/><circle cx="12" cy="9.333" r="6" stroke="#10375C" stroke-width="2.5"/></svg><svg fill="none" viewBox="0 0 32 32" id="wifi" xmlns="http://www.w3.org/2000/svg"><g clip-path="url(#fclip0_1_6694)" fill="#10375C"><path d="M15.938 29.156a2.062 2.062 0 100-4.125 2.062 2.062 0 000 4.125zM22.072 20.018c-1.626-1.611-3.957-2.612-6.084-2.612h-.092c-2.126 0-4.457 1.001-6.084 2.612a1.25 1.25 0 001.76 1.776c1.158-1.147 2.855-1.888 4.325-1.888h.091c1.47 0 3.167.741 4.324 1.888a1.25 1.25 0 101.76-1.776zM31.664 9.679C27.556 5.271 21.994 2.844 16 2.844 10.007 2.844 4.444 5.27.336 9.679a1.25 1.25 0 001.828 1.704C5.794 7.49 10.708 5.343 16 5.343s10.206 2.146 13.835 6.04a1.247 1.247 0 001.767.063 1.25 1.25 0 00.062-1.767z"/><path d="M27.075 14.841c-3.037-3.06-6.97-4.744-11.075-4.744-4.106 0-8.04 1.685-11.075 4.744A1.25 1.25 0 006.7 16.602c2.562-2.583 5.865-4.005 9.3-4.005 3.433 0 6.736 1.422 9.3 4.005a1.246 1.246 0 001.768.007 1.25 1.25 0 00.007-1.768z"/></g><defs><clipPath id="fclip0_1_6694"><path fill="#fff" d="M0 0h32v32H0z"/></clipPath></defs></svg></svg>